<!-- Generated by IcoMoon.io -->
<svg version="1.1" xmlns="http://www.w3.org/2000/svg" width="34" height="32" viewBox="0 0 34 32">
<title>anniubutton4</title>
<path d="M0 28.19c0-2.104 1.706-3.81 3.81-3.81s3.81 1.706 3.81 3.81v0c0 2.104-1.706 3.81-3.81 3.81s-3.81-1.706-3.81-3.81v0zM12.952 16c0-2.104 1.706-3.81 3.81-3.81s3.81 1.706 3.81 3.81v0c0 2.104-1.706 3.81-3.81 3.81s-3.81-1.706-3.81-3.81v0zM12.952 3.81c0-2.104 1.706-3.81 3.81-3.81s3.81 1.706 3.81 3.81v0c0 2.104-1.706 3.81-3.81 3.81s-3.81-1.706-3.81-3.81v0zM0 3.81c0-2.104 1.706-3.81 3.81-3.81s3.81 1.706 3.81 3.81v0c0 2.104-1.706 3.81-3.81 3.81s-3.81-1.706-3.81-3.81v0zM0 16c0-2.104 1.706-3.81 3.81-3.81s3.81 1.706 3.81 3.81v0c0 2.104-1.706 3.81-3.81 3.81s-3.81-1.706-3.81-3.81v0zM12.952 28.19c0-2.104 1.706-3.81 3.81-3.81s3.81 1.706 3.81 3.81v0c0 2.104-1.706 3.81-3.81 3.81s-3.81-1.706-3.81-3.81v0zM25.905 28.19c0-2.104 1.706-3.81 3.81-3.81s3.81 1.706 3.81 3.81v0c0 2.104-1.706 3.81-3.81 3.81s-3.81-1.706-3.81-3.81v0zM25.905 3.81c0-2.104 1.706-3.81 3.81-3.81s3.81 1.706 3.81 3.81v0c0 2.104-1.706 3.81-3.81 3.81s-3.81-1.706-3.81-3.81v0zM25.905 16c0-2.104 1.706-3.81 3.81-3.81s3.81 1.706 3.81 3.81v0c0 2.104-1.706 3.81-3.81 3.81s-3.81-1.706-3.81-3.81v0z"></path>
</svg>
