<!-- Generated by IcoMoon.io -->
<svg version="1.1" xmlns="http://www.w3.org/2000/svg" width="32" height="32" viewBox="0 0 32 32">
<title>dialog_solid</title>
<path d="M27.428 24.612h-8.681l-6.854 5.451-0.006-5.451h-7.318c-2.693 0-4.57-1.911-4.57-4.582v-13.557c0-2.673 1.877-4.536 4.57-4.536h22.858c2.693 0 4.572 1.862 4.572 4.536v13.603c0 2.673-1.879 4.536-4.572 4.536zM6.856 11.015c-1.266 0-2.294 1.014-2.294 2.264s1.028 2.262 2.294 2.262 2.296-1.012 2.296-2.262-1.028-2.264-2.296-2.264zM16 11.015c-1.26 0-2.281 1.014-2.281 2.264s1.022 2.262 2.281 2.262 2.281-1.012 2.281-2.262-1.022-2.264-2.281-2.264zM25.157 11.015c-1.262 0-2.284 1.014-2.284 2.264s1.022 2.262 2.284 2.262 2.281-1.012 2.281-2.262-1.022-2.264-2.281-2.264z"></path>
</svg>
