<!-- Generated by IcoMoon.io -->
<svg version="1.1" xmlns="http://www.w3.org/2000/svg" width="32" height="32" viewBox="0 0 32 32">
<title>tabs</title>
<path d="M9.697 11.636h-5.818c-0.536 0-0.97 0.434-0.97 0.97v5.818c0 0.535 0.434 0.97 0.97 0.97h5.818c0.536 0 0.97-0.434 0.97-0.97v0-5.818c0-0.536-0.434-0.97-0.97-0.97v0zM9.212 18.424h-4.848c-0.535 0-0.485 0.050-0.485-0.485v-4.848c0-0.535-0.050-0.485 0.485-0.485h4.848c0.535 0 0.485-0.050 0.485 0.485v4.848c0 0.535 0.050 0.485-0.485 0.485zM13.091 16.97h15.030v-0.97h-15.030v0.97zM13.091 20.849h15.030v-0.97h-15.030v0.97zM13.091 25.212h15.030v-0.97h-15.030v0.97zM13.091 12.606h15.030v-0.97h-15.030v0.97zM31.030 5.333h-0.485v-3.879c0-0.536-0.434-0.97-0.97-0.97v0h-5.333c-0.536 0-0.97 0.434-0.97 0.97v0 3.879h-4.364v-3.879c0-0.536-0.434-0.97-0.97-0.97v0h-5.333c-0.536 0-0.97 0.434-0.97 0.97v0 3.879h-3.879v-3.879c0-0.536-0.434-0.97-0.97-0.97v0h-5.818c-0.536 0-0.97 0.434-0.97 0.97v0 29.576c0 0.535 0.434 0.97 0.97 0.97h30.061c0.536 0 0.97-0.434 0.97-0.97v0-24.727c0-0.536-0.434-0.97-0.97-0.97v0zM31.030 30.061c0 0.536-0.434 0.97-0.97 0.97v0h-28.121c-0.536 0-0.97-0.434-0.97-0.97v0-27.636c0-0.536 0.434-0.97 0.97-0.97v0h3.879c0.536 0 0.97 0.434 0.97 0.97v0 3.879h23.273c0.536 0 0.97 0.434 0.97 0.97v0 22.788z"></path>
</svg>
